<?xml version="1.0" encoding="utf-8"?>
<!-- Generator: Adobe Illustrator 25.0.1, SVG Export Plug-In . SVG Version: 6.00 Build 0)  -->
<svg version="1.1" id="Layer_2" xmlns="http://www.w3.org/2000/svg" xmlns:xlink="http://www.w3.org/1999/xlink" x="0px" y="0px"
	 width="546.597px" height="580.811px" viewBox="0 0 546.597 580.811" enable-background="new 0 0 546.597 580.811"
	 xml:space="preserve">
<path d="M505.246,310.618c-3.14-10.69,0.7-10.06,0.66-16.34c-0.03-6.29-9.77-25.31-27.63-25.31c-1.89,31.42,3.75,86.27-48.75,147.24
	c-11.64-24.52-37.09-35.48-54.67-34.08c-17.57,1.39-21.71,0-21.71,0s-4.14,1.39-21.71,0c-17.58-1.4-43.03,9.56-54.67,34.08
	c-52.5-60.97-46.86-115.82-48.75-147.24c-17.86,0-27.6,19.02-27.63,25.31c-0.04,6.28,3.8,5.65,0.66,16.34
	c-3.14,10.68,5.66,28.28,9.43,33.31c3.77,5.03,6.91,20.11,31.42,32.68c-11.31,17.6-11.31,42.11-6.91,61.59
	c4.4,19.49,11.31,32.06,14.46,42.11c3.14,10.06,11.31,20.12,21.37,35.83c10.05,15.71,21.99,13.83,30.16,18.85
	c8.17,5.03,19.49,0,52.17,0s44,5.03,52.17,0c8.17-5.02,20.11-3.14,30.16-18.85c10.06-15.71,18.23-25.77,21.37-35.83
	c3.15-10.05,10.06-22.62,14.46-42.11c4.4-19.48,4.4-43.99-6.91-61.59c24.51-12.57,27.65-27.65,31.42-32.68
	C499.586,338.898,508.386,321.298,505.246,310.618z M412.256,455.168c-0.9,2.26-5.14,9.92-11.35,18.93
	c-6.22,9.01-13.43,12.62-19.74,10.36c-6.31-2.25-9.91-3.6-16.22-1.8c-6.31,1.8-11.8,2.25-11.8,2.25s-5.49-0.45-11.8-2.25
	c-6.31-1.8-9.91-0.45-16.22,1.8c-6.31,2.26-13.52-1.35-19.74-10.36c-6.21-9.01-10.45-16.67-11.36-18.93
	c-0.9-2.25,4.06-20.28,10.01-30.64c5.95-10.36,14.78-10.36,21.99-10.36s27.12-1.81,27.12-1.81s19.91,1.81,27.12,1.81
	s16.04,0,21.99,10.36C408.206,434.888,413.166,452.918,412.256,455.168z"/>
<path d="M513.196,164.068c-3.6,5.86-1.35,8.56-7.29,13.97c-5.93,5.41-11.18,20.28-26.5,22.53c-2.79,0.57-5.79-4.19-24.29-23.86
	c-18.51-19.66-43.18-26.6-61.3-29.69c-18.13-3.08-40.67-4.67-40.67-4.67s-22.54,1.59-40.67,4.67c-18.12,3.09-42.79,10.03-61.3,29.69
	c-18.5,19.67-21.5,24.43-24.29,23.86c-15.32-2.25-20.57-17.12-26.5-22.53c-5.94-5.41-3.69-8.11-7.3-13.97
	c-3.6-5.86-5.85-9.92-5.4-24.79c0.45-14.87,4.05-29.74,8.11-36.5c4.05-6.76,9.01-14.42,22.08-25.68
	c13.07-11.27,39.65-20.28,45.51-22.53c5.86-2.26,10.37-3.16,22.08-4.06c11.72-0.9,25.69-2.7,32.45-3.6
	c6.76-0.91,16.51-4.06,23.8-3.16s11.43-0.16,11.43-0.16s4.14,1.06,11.43,0.16c7.29-0.9,17.04,2.25,23.8,3.16
	c6.76,0.9,20.73,2.7,32.45,3.6c11.71,0.9,16.22,1.8,22.08,4.06c5.86,2.25,32.44,11.26,45.51,22.53
	c13.07,11.26,18.03,18.92,22.08,25.68c4.06,6.76,7.66,21.63,8.11,36.5C519.056,154.148,516.806,158.208,513.196,164.068z"/>
<path d="M365.546,435.898c-1.16,6.97-4.25,12-12.4,17.41c-8.15-5.41-11.24-10.44-12.4-17.41c-1.16-6.96,2.32-10.83,4.64-8.12
	c2.32,2.71,7.76,2.89,7.76,2.89s5.44-0.18,7.76-2.89C363.226,425.068,366.706,428.938,365.546,435.898z"/>
<path d="M311.998,219.962v34.236c0,0,2.182,0.671,3.189-4.028c1.007-4.699,0.839-30.208,0.839-30.208s-2.171,2.853-2.009,6.713
	C313.845,220.13,313.173,219.123,311.998,219.962z"/>
<path d="M318.056,217.277c9.052,2.182,18.786,15.104,13.415,26.851c-5.37,11.748-13.08,9.022-15.434,13.154
	s8.554,0.272,13.253-4.259s8.223-11.244,5.706-25.005c1.007-2.182-7.867-14.097-16.772-14.936c3.514,2.35,3.514,3.356,3.514,3.356
	L318.056,217.277z"/>
<g>
	<path d="M344.183,217.113c2.959,2.408,2.873,4.594,3.226,13.986c0.353,9.391,0.598,15.932,0.711,18.95s-3.977,5.892-3.977,5.892
		s-0.374-9.951-0.682-18.157C343.153,229.579,342.991,221.524,344.183,217.113z"/>
	<path d="M350.994,237.573c2.227,1.804,4.264,2.761,8.962,2.646c4.698-0.115,4.83-1.551,4.83-1.551s0.089-3.237-5.954-3.189
		S350.994,237.573,350.994,237.573z"/>
	<path d="M349.073,255.091c2.414-4.256,5.598-4.502,9.137-3.917c3.539,0.585,7.21-0.345,7.897,0.31
		c-2.795,2.419-4.099,3.995-9.3,4.122C351.607,255.733,349.073,255.091,349.073,255.091z"/>
	<path d="M350.489,216.949c-2.615,1.947,0.54,4.095,5.355,4.148c4.815,0.053,6.184-0.836,6.184-0.836s-3.242-1.332,1.461-1.491
		c4.703-0.158-1.563-2.679-3.493-2.846c-1.93-0.167-7.163,0.176-7.163,0.176S353.19,214.144,350.489,216.949z"/>
</g>
<path d="M404.741,214.498c-1.761,9.106-13.608,33.261-13.972,34.006c0.31-0.764,10.2-25.375,11.057-28.48
	c0.865-3.148-0.534-5.394-0.534-5.394l-14.33,37.665c0,0-12.047-34.698-12.549-35.93c-0.492-1.221-4.122-0.288-4.983-2.025
	l13.842,40.924l4.081-1.353l2.553,1.375c0,0,10.101-22.711,13.383-31.377C406.571,215.244,405.852,213.63,404.741,214.498z
	 M384.147,252.127c-0.042,0.012-0.094,0.025-0.147,0.027c-0.233,0.009-0.439-0.132-0.522-0.362l-10.176-29.821
	c-0.096-0.282,0.052-0.585,0.334-0.68c0.272-0.085,0.575,0.063,0.67,0.335l10.176,29.821
	C384.577,251.729,384.429,252.031,384.147,252.127z"/>
<g>
	<path fill="none" stroke="#000000" stroke-width="2" stroke-linecap="round" stroke-linejoin="round" stroke-miterlimit="10" d="
		M478.276,268.968c-84.161,4.356-167.581,4.356-250.26,0c-2.19-8.01-2.43-59.08,1.18-69.08c0,0,44.354,2.55,123.95,2.55
		s123.95-2.55,123.95-2.55C480.706,209.888,480.466,260.958,478.276,268.968z"/>
	<path fill="none" stroke="#000000" stroke-width="2" stroke-linecap="round" stroke-linejoin="round" stroke-miterlimit="10" d="
		M226.954,259.706c-22.379,5.996-36.446,20.867-50.514,26.896c-14.067,6.029-32.958,20.498-40.594,24.116
		c-7.637,3.617-19.694,9.646-33.36,38.183c-13.665,28.537-13.665,33.762-32.154,50.241S52.246,417.63,52.246,417.63l42.202,27.331
		c0,0,20.096-7.637,37.379-30.948s17.283-39.389,20.498-49.839c3.215-10.45,16.949-41.016,49.27-47.437"/>
	<path fill="none" stroke="#000000" stroke-width="2" stroke-linecap="round" stroke-linejoin="round" stroke-miterlimit="10" d="
		M212.209,265.294c-23.309-2.004-51.846,1.308-69.932,3.671c-18.087,2.363-34.566,7.588-58.279,20.852s-30.144,20.9-55.064,26.527
		c11.656,11.254,41.398,43.81,41.398,43.81s18.802-22.072,38.942-23.898"/>
	<path fill="none" stroke="#000000" stroke-width="2" stroke-linecap="round" stroke-linejoin="round" stroke-miterlimit="10" d="
		M55.863,320.766c22.106-4.019,38.987-22.91,59.485-30.948s48.231-9.244,48.231-9.244"/>
	<path fill="none" stroke="#000000" stroke-width="2" stroke-linecap="round" stroke-linejoin="round" stroke-miterlimit="10" d="
		M192.116,289.818c-8.44,8.44-25.321,12.238-36.173,21.794c-10.852,9.556-23.714,20.408-23.714,20.408"/>
	<path fill="none" stroke="#000000" stroke-width="2" stroke-linecap="round" stroke-linejoin="round" stroke-miterlimit="10" d="
		M122.582,341.666c-7.235,10.852-8.842,26.254-18.087,40.458c-9.244,14.204-24.517,26.262-24.517,26.262"/>
	<path fill="none" stroke="#000000" stroke-width="2" stroke-linecap="round" stroke-linejoin="round" stroke-miterlimit="10" d="
		M235.962,257.241c5.076,0.713,14.344,0,14.344,0s-0.221-0.781,3.972-0.586c4.193,0.196,8.606,0.586,8.606,0.586"/>
	<path fill="none" stroke="#000000" stroke-width="2" stroke-linecap="round" stroke-linejoin="round" stroke-miterlimit="10" d="
		M267.518,257.117c5.517-0.486,15.668,0.441,15.668,0.441"/>
	<path fill="none" stroke="#000000" stroke-width="2" stroke-linecap="round" stroke-linejoin="round" stroke-miterlimit="10" d="
		M240.817,229.046c6.4,1.545,19.419,0.221,23.392,1.103"/>
	<path fill="none" stroke="#000000" stroke-width="2" stroke-linecap="round" stroke-linejoin="round" stroke-miterlimit="10" d="
		M275.352,231.694c5.627,0.221,8.937,0.883,17.985,1.103"/>
	<path fill="none" stroke="#000000" stroke-width="2" stroke-linecap="round" stroke-linejoin="round" stroke-miterlimit="10" d="
		M270.829,215.726c10.151,0.299,10.151,1.696,16.992,1.549"/>
	<path fill="none" stroke="#000000" stroke-width="2" stroke-linecap="round" stroke-linejoin="round" stroke-miterlimit="10" d="
		M240.882,214.41c8.111,0,21.293,1.01,24.334,1.096"/>

		<line fill="none" stroke="#000000" stroke-width="2" stroke-linecap="round" stroke-linejoin="round" stroke-miterlimit="10" x1="265.893" y1="239.394" x2="270.117" y2="239.394"/>

		<line fill="none" stroke="#000000" stroke-width="2" stroke-linecap="round" stroke-linejoin="round" stroke-miterlimit="10" x1="286.002" y1="243.983" x2="291.748" y2="243.983"/>
	<path fill="none" stroke="#000000" stroke-width="2" stroke-linecap="round" stroke-linejoin="round" stroke-miterlimit="10" d="
		M426.094,226.577c6.76-1.69,22.307-1.521,22.307-1.521"/>
	<path fill="none" stroke="#000000" stroke-width="2" stroke-linecap="round" stroke-linejoin="round" stroke-miterlimit="10" d="
		M457.695,213.396c1.859-1.69,7.773-1.521,7.773-1.521"/>
	<path fill="none" stroke="#000000" stroke-width="2" stroke-linecap="round" stroke-linejoin="round" stroke-miterlimit="10" d="
		M423.39,248.714c4.563,0.338,9.125-1.014,9.125-1.014"/>
	<path fill="none" stroke="#000000" stroke-width="2" stroke-linecap="round" stroke-linejoin="round" stroke-miterlimit="10" d="
		M432.516,264.261c3.38-1.352,11.66-1.352,11.66-1.352"/>

		<line fill="none" stroke="#000000" stroke-width="2" stroke-linecap="round" stroke-linejoin="round" stroke-miterlimit="10" x1="454.315" y1="261.465" x2="460.23" y2="261.465"/>

		<line fill="none" stroke="#000000" stroke-width="2" stroke-linecap="round" stroke-linejoin="round" stroke-miterlimit="10" x1="467.158" y1="261.465" x2="471.383" y2="261.465"/>

		<line fill="none" stroke="#000000" stroke-width="2" stroke-linecap="round" stroke-linejoin="round" stroke-miterlimit="10" x1="458.709" y1="236.061" x2="464.624" y2="236.061"/>

		<line fill="none" stroke="#000000" stroke-width="2" stroke-linecap="round" stroke-linejoin="round" stroke-miterlimit="10" x1="452.625" y1="236.061" x2="455.667" y2="236.061"/>

		<line fill="none" stroke="#000000" stroke-width="2" stroke-linecap="round" stroke-linejoin="round" stroke-miterlimit="10" x1="442.993" y1="236.58" x2="446.035" y2="236.58"/>

		<line fill="none" stroke="#000000" stroke-width="2" stroke-linecap="round" stroke-linejoin="round" stroke-miterlimit="10" x1="439.106" y1="254.308" x2="444.176" y2="254.308"/>
</g>
</svg>
